<svg id="Capa_1" enable-background="new 0 0 512 512" height="512" viewBox="0 0 512 512" width="512" xmlns="http://www.w3.org/2000/svg"><g><g><path d="m221 15h70v64.24h-70z" fill="#e2dff4"/><path d="m256 15h35v64.24h-35z" fill="#bebcdd"/><path d="m59.165 83.045h70v64.24h-70z" fill="#e2dff4" transform="matrix(.707 -.707 .707 .707 -53.854 100.316)"/><path d="m385.715 80.165h64.24v70h-64.24z" fill="#bebcdd" transform="matrix(.707 -.707 .707 .707 40.947 329.185)"/></g><g><g><g><g><path d="m135.289 512h-39.289c-8.284 0-15-6.716-15-15s6.716-15 15-15h28.275l12.337-39.301c2.481-7.904 10.898-12.299 18.804-9.819 7.904 2.481 12.301 10.9 9.819 18.804l-15.635 49.809c-1.962 6.252-7.757 10.507-14.311 10.507z" fill="#e2dff4"/></g><g><path d="m416 512h-39.289c-6.554 0-12.349-4.255-14.312-10.508l-15.635-49.809c-2.481-7.904 1.915-16.323 9.819-18.804 7.906-2.48 16.323 1.916 18.804 9.819l12.338 39.302h28.275c8.284 0 15 6.716 15 15s-6.716 15-15 15z" fill="#bebcdd"/></g></g><g><path d="m316 30h-120c-8.284 0-15-6.716-15-15s6.716-15 15-15h120c8.284 0 15 6.716 15 15s-6.716 15-15 15z" fill="#f9f9f9"/></g><path d="m316 30c8.284 0 15-6.716 15-15s-6.716-15-15-15h-60v30z" fill="#e2dff4"/><g><path d="m19.119 146.185c-5.858-5.858-5.858-15.355 0-21.213l84.853-84.853c5.858-5.858 15.355-5.858 21.213 0 5.858 5.858 5.858 15.355 0 21.213l-84.853 84.853c-5.858 5.858-15.355 5.858-21.213 0z" fill="#f9f9f9"/></g><g><path d="m471.668 146.185-84.853-84.853c-5.858-5.858-5.858-15.355 0-21.213 5.858-5.858 15.355-5.858 21.213 0l84.853 84.853c5.858 5.858 5.858 15.355 0 21.213-5.858 5.858-15.355 5.858-21.213 0z" fill="#e2dff4"/></g><g><path d="m256 492c-57.429 0-111.42-22.364-152.028-62.972-40.608-40.608-62.972-94.599-62.972-152.028s22.364-111.42 62.972-152.028 94.599-62.972 152.028-62.972 111.42 22.364 152.028 62.972 62.972 94.599 62.972 152.028-22.364 111.42-62.972 152.028-94.599 62.972-152.028 62.972z" fill="#f9f9f9"/></g><path d="m408.028 429.028c40.608-40.608 62.972-94.599 62.972-152.028s-22.364-111.42-62.972-152.028-94.599-62.972-152.028-62.972v430c57.429 0 111.42-22.364 152.028-62.972z" fill="#e2dff4"/><g><path d="m288 301-32-179c-85.468 0-155 69.533-155 155z" fill="#ffc178"/><path d="m256 277h-155c0 85.467 69.532 155 155 155 42.734 0 81.484-17.383 109.55-45.45l-44.55-78.55z" fill="#e273d3"/><path d="m256 277v155c42.734 0 81.484-17.383 109.55-45.45l-44.55-78.55z" fill="#b473f1"/><path d="m256 277 109.55 109.55c28.067-28.066 45.45-66.816 45.45-109.55 0-85.467-69.532-155-155-155z" fill="#8bb9ff"/></g></g></g></g></svg>