<svg height="512" viewBox="0 0 55 60" width="512" xmlns="http://www.w3.org/2000/svg"><g id="Page-1" fill="none" fill-rule="evenodd"><g id="016---Roman-Helmet" fill="rgb(0,0,0)" fill-rule="nonzero"><path id="Shape" d="m27.543 24.853c-3.780557 1.4998483-6.5370747 4.8216895-7.314 8.814-.1064767.5417684.2462732 1.067312.788 1.174.0638755.0127583.1288629.0191231.194.019.4771156-.0004779.8874398-.3379486.98-.806.6473624-3.3257764 2.9430888-6.0933101 6.092-7.344.3429262-.1243128.5909617-.4254846.6472272-.7858818.0562656-.3603973-.0881655-.7228414-.3768805-.9457666-.2887151-.2229252-.675908-.2709634-1.0103467-.1253516z"/><path id="Shape" d="m36.9 19.414c.9134658.4493644 1.9926763.4037852 2.865-.121.9271368-.5070289 1.647217-1.3230019 2.035-2.306 4.2837149-.0126818 8.4354811-1.4833634 11.772-4.17.4119775-.3429797.665047-.8400806.7-1.375.0376634-.5466354-.1490201-1.0850203-.517-1.491-5.8717449-6.33621068-14.1164314-9.94169852-22.755-9.951-1.2259033-.00099022-2.4507647.07147296-3.668.217-.858236.10853011-1.549416.75653657-1.713 1.606l-.159.789-.582-.777c-.4975945-.64631889-1.3350731-.92994918-2.123-.719-3.2716932.89723051-6.370393 2.33504343-9.168 4.254-.7293732.50667302-1.0372726 1.43362916-.756 2.276l.369 1.109-1-.6c-.7645052-.45921165-1.7395846-.36332885-2.4.236-2.26757405 2.1221912-4.20140954 4.5748853-5.736 7.275-.39728428.7143573-.32711778 1.5973514.178 2.24l1.676 2.094h-2.478c-.86400934-.0084917-1.63344024.5450936-1.9 1.367-1.0238831 3.108298-1.54378905 6.360411-1.54 9.633.00007768 2.635581.33611931 5.2604021 1 7.811.23051954.8791596 1.02612423 1.4913846 1.935 1.489.25057532-.0003314.4989836-.0464208.733-.136 3.82200338-1.40102 7.1876111-3.8214771 9.732-6.999.9149302.1833163 1.8645461.0679882 2.709-.329.027.211.061.421.1.631-.1396458.8370944-.2095526 1.6843377-.209 2.533.0016673.5679181.0330435 1.1353602.094 1.7l.606 3.59c.0894096.5253143-.2488076 1.0284618-.769 1.144l-5.141 1.14c-.82966438.1855165-1.54165961.7143338-1.959 1.455-.42017935.7530605-.50052356 1.6492075-.221 2.465.756 2.208 2.287 5.062 5.29 6.12 2.687.946 5.94.225 9.685-2.141.8786285-.5516922 1.4128345-1.5155282 1.415-2.553v-7.69c.0034142-.9125257.3786062-1.7842422 1.039-2.414.5546927-.5544112 1.3164729-.85078 2.1-.817.7448813.0398054 1.4491723.3519141 1.979.877.1459923.1496409.2775728.3126936.393.487.010967.0227386.0233237.0447803.037.066.2947534.4710319.4513609 1.015347.452 1.571v12.44c.0034694 1.2621471.5039207 2.4721399 1.393 3.368l1.8 1.8c.8953493.8891116 2.1051908 1.3892897 3.367 1.392 1.4278258.0019847 2.76924-.6837353 3.6038291-1.842248s1.0602175-2.6480414.6061709-4.001752l-.422-1.277c-.1819349-.5481811-.1635089-1.1431281.052-1.679l.982-2.455c.4435636-1.1096429.4789993-2.3406794.1-3.474l-1.221-3.661 6.1-1.433c.9973072-.2340483 1.6565354-1.1838205 1.527-2.2l-.648-5.117c-.0785743-.6373366-.4619546-1.1967436-1.028-1.5-.0858203-.4907637-.2222139-.9713249-.407-1.434-1.9119881-4.6695108-5.918041-8.16095-10.805-9.417v-1.509c.3.132.607.264.9.414zm-4.9.586c-5.434849-.0066121-10.4991222 2.7542799-13.438 7.326.5203015-1.6998197 1.3769303-3.2777307 2.519-4.64 3.1186973-3.8026662 8.1390922-5.4841624 12.919-4.327v1.779c-.6631614-.0874144-1.3311172-.1335034-2-.138zm-29.062 18.308c-.62220401-2.3861927-.93741567-4.8420209-.938-7.308-.00445043-3.0577087.48172846-6.0963268 1.44-9h4.56c.38436288-.0002401.73457267-.2207567.90089846-.5672687.1663258-.3465121.11932846-.7576881-.12089846-1.0577313l-2.98-3.72c1.43052855-2.5240661 3.24068115-4.8131485 5.367-6.787l3.32 1.99c.3587047.2149253.8132637.1839643 1.1395127-.0776147.3262489-.2615789.4552901-.6985353.3234873-1.0953853l-1.23-3.666c2.6141251-1.79379739 5.5111422-3.13548477 8.57-3.969l1.91 2.55c.2360122.31572078.6354773.46333853 1.020081.37695927.3846037-.08637927.6825806-.39063757.760919-.77695927l.589-3c1.1382972-.13528732 2.2836934-.20207427 3.43-.2 8.0752153.01002334 15.7833987 3.3740684 21.282 9.288-3.1437733 2.4987073-7.0676139 3.8094868-11.082 3.702-5.8449788-3.7365875-13.2630313-3.9862092-19.34598-.6510035-6.0829487 3.3352058-9.8613894 9.7237268-9.85402 16.6610035 0 .216.012.429.019.642-2.407 3.47-6.251 5.537-9.081 6.666zm13.072-7.756c-.1309322.1089572-.2688974.2091741-.413.3-.4710144.3050895-1.0313984.4418373-1.59.388 0-.079-.007-.157-.007-.236-.0096545-6.1460785 3.3032554-11.8174349 8.6616229-14.8277957s11.9253353-2.8895748 17.1693771.3157957c-.2532422.456493-.6308835.8317068-1.089 1.082-.2804133.1757613-.6306421.1979563-.931.059-.808705-.4133468-1.6535668-.7517602-2.524-1.011-4.4617975-1.2880314-9.268108-.451341-13.03218 2.2686633-3.7640721 2.7200044-6.067182 7.0207434-6.24482 11.6613367zm24.571 15.353c.1047341.3109772.1584288.6368602.159.965-.000287.389778-.074604.7759547-.219 1.138l-.982 2.455c-.3885333.9747335-.4197057 2.0554926-.088 3.051l.424 1.281c.0835635.2463631.1258003.504852.125.765.0032775.6504995-.2576408 1.2744659-.723 1.729-1.0567473.9439148-2.6662221.9000599-3.67-.1l-1.8-1.8c-.514518-.5184751-.8043953-1.2185628-.807-1.949v-9.888l6.3-1.481zm-7.581-4.405v-.5c-.0000054-.4505261-.0612322-.8989621-.182-1.333 2.64-.541 6.232-1.944 7.81-5.57 1.9339115.3271082 3.9214716-.0221627 5.628-.989l.64 5.124zm11.956-10.8c.0977595.2367892.1779757.4804461.24.729-.01.006-.022.008-.032.015-1.328536.7023031-2.8543912.938242-4.333.67-.8436894-.0836747-1.6473162.3780088-2 1.149-1.37 3.119-4.749 4.189-6.982 4.557-.099618-.1235987-.2054196-.2420832-.317-.355-.8797661-.8778386-2.0529075-1.3995909-3.294-1.465-1.3303985-.0539855-2.6246237.4405676-3.58 1.368-1.0552784 1.0080082-1.6540175 2.4026586-1.658 3.862v7.69c-.0028364.3518526-.1854335.677811-.484.864-3.2 2.022-5.873 2.675-7.948 1.944-2.248-.792-3.45-3.092-4.062-4.881-.0980831-.2774075-.0714673-.5836712.073-.84.1364955-.2463074.3727243-.4216563.648-.481l5.139-1.139c1.5558462-.3487705 2.5695195-1.8506386 2.311-3.424l-.6-3.539c-.049-.44-.077-.972-.077-1.424-.0041272-.7913995.0628082-1.5815716.2-2.361 0-.024.008-.052.011-.08 1.085653-6.1369819 6.0972955-10.8173806 12.2940794-11.4815038 6.1967838-.6641232 12.0864329 2.8479597 14.4479206 8.6155038z"/><path id="Shape" d="m36 47h2c.5522847 0 1-.4477153 1-1s-.4477153-1-1-1h-2c-.5522847 0-1 .4477153-1 1s.4477153 1 1 1z"/><path id="Shape" d="m36 51h1c.5522847 0 1-.4477153 1-1s-.4477153-1-1-1h-1c-.5522847 0-1 .4477153-1 1s.4477153 1 1 1z"/><path id="Shape" d="m36 55h1c.5522847 0 1-.4477153 1-1s-.4477153-1-1-1h-1c-.5522847 0-1 .4477153-1 1s.4477153 1 1 1z"/><circle id="Oval" cx="32" cy="25" r="1"/></g></g></svg>